<mxfile host="app.diagrams.net" modified="2024-05-01T15:03:14.284Z" agent="Mozilla/5.0 (Windows NT 10.0; Win64; x64) AppleWebKit/537.36 (KHTML, like Gecko) Chrome/124.0.0.0 Safari/537.36" version="24.3.1" etag="lZd6SMVJVy3z0AQ4txZz" type="device">
  <diagram id="0Ivpq27k8OpaZ0CAXJ0I" name="Страница — 1">
    <mxGraphModel dx="2220" dy="998" grid="1" gridSize="10" guides="1" tooltips="1" connect="1" arrows="1" fold="1" page="1" pageScale="1" pageWidth="827" pageHeight="1169" math="0" shadow="0">
      <root>
        <mxCell id="0" />
        <mxCell id="1" parent="0" />
        <mxCell id="f6YtJ3-hcSFkmww9S2Eq-1" style="edgeStyle=orthogonalEdgeStyle;rounded=0;orthogonalLoop=1;jettySize=auto;html=1;" edge="1" parent="1" source="f6YtJ3-hcSFkmww9S2Eq-2" target="f6YtJ3-hcSFkmww9S2Eq-4">
          <mxGeometry relative="1" as="geometry" />
        </mxCell>
        <mxCell id="f6YtJ3-hcSFkmww9S2Eq-2" value="Начало" style="rounded=1;whiteSpace=wrap;html=1;" vertex="1" parent="1">
          <mxGeometry x="330" y="20" width="120" height="30" as="geometry" />
        </mxCell>
        <mxCell id="f6YtJ3-hcSFkmww9S2Eq-3" style="edgeStyle=orthogonalEdgeStyle;rounded=0;orthogonalLoop=1;jettySize=auto;html=1;" edge="1" parent="1" source="f6YtJ3-hcSFkmww9S2Eq-4" target="f6YtJ3-hcSFkmww9S2Eq-7">
          <mxGeometry relative="1" as="geometry">
            <mxPoint x="390" y="190" as="targetPoint" />
          </mxGeometry>
        </mxCell>
        <mxCell id="f6YtJ3-hcSFkmww9S2Eq-4" value="Основная страница" style="rounded=0;whiteSpace=wrap;html=1;" vertex="1" parent="1">
          <mxGeometry x="330" y="100" width="120" height="60" as="geometry" />
        </mxCell>
        <mxCell id="f6YtJ3-hcSFkmww9S2Eq-6" style="edgeStyle=orthogonalEdgeStyle;rounded=0;orthogonalLoop=1;jettySize=auto;html=1;exitX=0.5;exitY=1;exitDx=0;exitDy=0;entryX=0.5;entryY=0;entryDx=0;entryDy=0;" edge="1" parent="1" source="f6YtJ3-hcSFkmww9S2Eq-19" target="f6YtJ3-hcSFkmww9S2Eq-11">
          <mxGeometry relative="1" as="geometry">
            <mxPoint x="459.31" y="520" as="sourcePoint" />
            <mxPoint x="459.31" y="560" as="targetPoint" />
          </mxGeometry>
        </mxCell>
        <mxCell id="f6YtJ3-hcSFkmww9S2Eq-21" style="edgeStyle=orthogonalEdgeStyle;rounded=0;orthogonalLoop=1;jettySize=auto;html=1;entryX=0.5;entryY=0;entryDx=0;entryDy=0;" edge="1" parent="1" source="f6YtJ3-hcSFkmww9S2Eq-7" target="f6YtJ3-hcSFkmww9S2Eq-20">
          <mxGeometry relative="1" as="geometry" />
        </mxCell>
        <mxCell id="f6YtJ3-hcSFkmww9S2Eq-7" value="Нажатие на товар&amp;nbsp;" style="rounded=0;whiteSpace=wrap;html=1;" vertex="1" parent="1">
          <mxGeometry x="330" y="190" width="120" height="60" as="geometry" />
        </mxCell>
        <mxCell id="f6YtJ3-hcSFkmww9S2Eq-8" value="Конец" style="rounded=1;whiteSpace=wrap;html=1;" vertex="1" parent="1">
          <mxGeometry x="320" y="970" width="120" height="40" as="geometry" />
        </mxCell>
        <mxCell id="f6YtJ3-hcSFkmww9S2Eq-9" style="edgeStyle=orthogonalEdgeStyle;rounded=0;orthogonalLoop=1;jettySize=auto;html=1;" edge="1" parent="1" source="f6YtJ3-hcSFkmww9S2Eq-10" target="f6YtJ3-hcSFkmww9S2Eq-8">
          <mxGeometry relative="1" as="geometry" />
        </mxCell>
        <mxCell id="f6YtJ3-hcSFkmww9S2Eq-10" value="Обработка заявки" style="shape=process;whiteSpace=wrap;html=1;backgroundOutline=1;" vertex="1" parent="1">
          <mxGeometry x="320" y="830" width="120" height="60" as="geometry" />
        </mxCell>
        <mxCell id="f6YtJ3-hcSFkmww9S2Eq-11" value="Ввод необходимых данных" style="shape=parallelogram;perimeter=parallelogramPerimeter;whiteSpace=wrap;html=1;fixedSize=1;" vertex="1" parent="1">
          <mxGeometry x="320" y="610" width="140" height="60" as="geometry" />
        </mxCell>
        <mxCell id="f6YtJ3-hcSFkmww9S2Eq-13" style="edgeStyle=orthogonalEdgeStyle;rounded=0;orthogonalLoop=1;jettySize=auto;html=1;entryX=0;entryY=0.5;entryDx=0;entryDy=0;exitX=0.003;exitY=0.508;exitDx=0;exitDy=0;exitPerimeter=0;" edge="1" parent="1" source="f6YtJ3-hcSFkmww9S2Eq-17" target="f6YtJ3-hcSFkmww9S2Eq-11">
          <mxGeometry relative="1" as="geometry">
            <mxPoint x="269.97" y="670" as="targetPoint" />
            <Array as="points">
              <mxPoint x="130" y="751" />
              <mxPoint x="130" y="640" />
            </Array>
            <mxPoint x="280" y="746" as="sourcePoint" />
          </mxGeometry>
        </mxCell>
        <mxCell id="f6YtJ3-hcSFkmww9S2Eq-14" value="нет" style="edgeLabel;html=1;align=center;verticalAlign=middle;resizable=0;points=[];" vertex="1" connectable="0" parent="f6YtJ3-hcSFkmww9S2Eq-13">
          <mxGeometry x="-0.0403" y="2" relative="1" as="geometry">
            <mxPoint y="10" as="offset" />
          </mxGeometry>
        </mxCell>
        <mxCell id="f6YtJ3-hcSFkmww9S2Eq-15" style="edgeStyle=orthogonalEdgeStyle;rounded=0;orthogonalLoop=1;jettySize=auto;html=1;entryX=1;entryY=0.5;entryDx=0;entryDy=0;" edge="1" parent="1" source="f6YtJ3-hcSFkmww9S2Eq-17" target="f6YtJ3-hcSFkmww9S2Eq-10">
          <mxGeometry relative="1" as="geometry">
            <mxPoint x="510" y="880" as="targetPoint" />
            <Array as="points">
              <mxPoint x="500" y="750" />
              <mxPoint x="500" y="860" />
            </Array>
          </mxGeometry>
        </mxCell>
        <mxCell id="f6YtJ3-hcSFkmww9S2Eq-16" value="да" style="edgeLabel;html=1;align=center;verticalAlign=middle;resizable=0;points=[];" vertex="1" connectable="0" parent="f6YtJ3-hcSFkmww9S2Eq-15">
          <mxGeometry x="-0.1453" relative="1" as="geometry">
            <mxPoint as="offset" />
          </mxGeometry>
        </mxCell>
        <mxCell id="f6YtJ3-hcSFkmww9S2Eq-17" value="Введенные данные оказались верными?" style="rhombus;whiteSpace=wrap;html=1;" vertex="1" parent="1">
          <mxGeometry x="280" y="700" width="200" height="100" as="geometry" />
        </mxCell>
        <mxCell id="f6YtJ3-hcSFkmww9S2Eq-19" value="Вход в аккаунт" style="shape=parallelogram;perimeter=parallelogramPerimeter;whiteSpace=wrap;html=1;fixedSize=1;" vertex="1" parent="1">
          <mxGeometry x="320" y="500" width="140" height="60" as="geometry" />
        </mxCell>
        <mxCell id="f6YtJ3-hcSFkmww9S2Eq-24" style="edgeStyle=orthogonalEdgeStyle;rounded=0;orthogonalLoop=1;jettySize=auto;html=1;entryX=0.5;entryY=0;entryDx=0;entryDy=0;" edge="1" parent="1" source="f6YtJ3-hcSFkmww9S2Eq-20" target="f6YtJ3-hcSFkmww9S2Eq-23">
          <mxGeometry relative="1" as="geometry" />
        </mxCell>
        <mxCell id="f6YtJ3-hcSFkmww9S2Eq-20" value="Открытие модального окна с товаром" style="rounded=0;whiteSpace=wrap;html=1;" vertex="1" parent="1">
          <mxGeometry x="330" y="290" width="120" height="60" as="geometry" />
        </mxCell>
        <mxCell id="f6YtJ3-hcSFkmww9S2Eq-25" style="edgeStyle=orthogonalEdgeStyle;rounded=0;orthogonalLoop=1;jettySize=auto;html=1;entryX=0.5;entryY=0;entryDx=0;entryDy=0;" edge="1" parent="1" source="f6YtJ3-hcSFkmww9S2Eq-23" target="f6YtJ3-hcSFkmww9S2Eq-19">
          <mxGeometry relative="1" as="geometry" />
        </mxCell>
        <mxCell id="f6YtJ3-hcSFkmww9S2Eq-23" value="Нажатие кнопки покупки" style="rounded=0;whiteSpace=wrap;html=1;" vertex="1" parent="1">
          <mxGeometry x="330" y="400" width="120" height="60" as="geometry" />
        </mxCell>
      </root>
    </mxGraphModel>
  </diagram>
</mxfile>
